<svg version="1.1" xmlns="http://www.w3.org/2000/svg" viewBox="0 0 438.94921875 438.94921875" width="438.94921875" height="438.94921875" class="excalidraw-svg"><!-- svg-source:excalidraw --><metadata></metadata><defs><style class="style-fonts">
      </style></defs><g stroke-linecap="round" transform="translate(10 10) rotate(0 209.474609375 209.474609375)"><path d="M32 0 C108.18 2.09, 186.2 2.38, 386.95 0 M32 0 C129.51 0.81, 227.47 1.02, 386.95 0 M386.95 0 C409.16 -0.37, 419.97 9.59, 418.95 32 M386.95 0 C409.46 -0.59, 416.88 9.16, 418.95 32 M418.95 32 C421.5 141.19, 421.62 247.6, 418.95 386.95 M418.95 32 C420.56 172.55, 421 312.79, 418.95 386.95 M418.95 386.95 C418.08 406.64, 407.26 418.18, 386.95 418.95 M418.95 386.95 C416.77 408.97, 407.22 416.66, 386.95 418.95 M386.95 418.95 C300.89 420.21, 217.36 419.44, 32 418.95 M386.95 418.95 C250.99 421.31, 114.86 420.61, 32 418.95 M32 418.95 C11.85 418.86, -0.47 407.97, 0 386.95 M32 418.95 C12.01 417.13, -0.84 406.51, 0 386.95 M0 386.95 C2.73 253.62, 3.12 119.92, 0 32 M0 386.95 C-1.22 294.77, -1.66 201.25, 0 32 M0 32 C0.74 10.37, 9.09 1.63, 32 0 M0 32 C-1.03 9.58, 10.62 2.06, 32 0" stroke="none" stroke-width="2" fill="#eff1f5"></path></g><g stroke-linecap="round"><g transform="translate(214.77585277540237 203.5624438537084) rotate(0 -40.63155295018727 96.09599878107696)"><path d="M-0.83 -0.26 C-11.3 4.26, -44.95 16.89, -62.22 25.98 C-79.49 35.06, -94.65 43.96, -104.48 54.23 C-114.31 64.5, -118.13 75.5, -121.2 87.6 C-124.27 99.69, -125.01 112.04, -122.91 126.78 C-120.81 141.52, -114.31 164.94, -108.59 176.03 C-102.88 187.12, -104.03 192.07, -88.62 193.31 C-73.22 194.55, -36.13 192.48, -16.17 183.46 C3.78 174.44, 21.35 157.3, 31.12 139.2 C40.89 121.09, 41.33 97.06, 42.45 74.83 C43.57 52.61, 38.58 17.55, 37.85 5.84 M0.94 -1.44 C-9.23 2.8, -42.4 14.54, -60.03 24.05 C-77.67 33.56, -94.67 44.89, -104.86 55.62 C-115.05 66.34, -117.99 76.48, -121.2 88.4 C-124.4 100.32, -125.87 112.7, -124.09 127.14 C-122.31 141.58, -116.43 164.23, -110.51 175.03 C-104.59 185.82, -104.12 190.03, -88.56 191.9 C-72.99 193.77, -37.3 194.73, -17.1 186.26 C3.11 177.8, 22.57 159.74, 32.67 141.1 C42.76 122.46, 42.5 97.33, 43.47 74.43 C44.44 51.54, 39.56 15.45, 38.49 3.72" stroke="#1e1e1e" stroke-width="2" fill="none"></path></g></g><mask></mask><g stroke-linecap="round"><g transform="translate(114.54509913491495 395.3291358606763) rotate(0 77.64658183494677 -85.95583260196396)"><path d="M0.82 0.83 C5.97 2.98, 14.17 12.05, 30.69 13.64 C47.21 15.22, 80.04 19.88, 99.95 10.32 C119.87 0.77, 141.92 -15.78, 150.19 -43.7 C158.46 -71.61, 151.6 -132.86, 149.57 -157.17 C147.53 -181.47, 139.96 -184.13, 137.98 -189.52 M-0.21 0.22 C5.35 2.4, 16.47 12.66, 33.07 14.56 C49.67 16.46, 79.77 21.68, 99.42 11.62 C119.06 1.56, 142.25 -17.75, 150.95 -45.81 C159.65 -73.86, 153.55 -133.13, 151.61 -156.7 C149.66 -180.27, 141.56 -182.07, 139.3 -187.2" stroke="#1e1e1e" stroke-width="2" fill="none"></path></g></g><mask></mask><g stroke-linecap="round"><g transform="translate(190.66479578071016 246.4870848193824) rotate(0 53.928244513692 -82.263594742753)"><path d="M-0.08 -0.18 C18.26 -27.55, 91.24 -137.17, 109.43 -164.35 M-1.57 -1.32 C16.69 -28.54, 90.41 -135.84, 108.73 -163.19" stroke="#1e1e1e" stroke-width="2" fill="none"></path></g></g><mask></mask><g stroke-linecap="round"><g transform="translate(220.31599310270536 264.9847434328568) rotate(0 46.5898209399818 -88.94544156965986)"><path d="M0.69 0.1 C16.04 -29.15, 76.34 -146.67, 91.47 -176.23 M-0.4 -0.89 C15.35 -30.42, 77.89 -148.79, 93.58 -177.99" stroke="#1e1e1e" stroke-width="2" fill="none"></path></g></g><mask></mask><g stroke-linecap="round"><g transform="translate(300.12606421445616 82.85606414404828) rotate(0 -3.1919633009086112 -7.076245344736286)"><path d="M0.22 0.18 C-0.7 -2.21, -5.08 -11.98, -6.08 -14.33 M-0.33 -0.21 C-1.29 -2.5, -5.64 -11.22, -6.6 -13.65" stroke="#1e1e1e" stroke-width="2" fill="none"></path></g></g><mask></mask><g stroke-linecap="round"><g transform="translate(295.034629467381 66.94075193106875) rotate(0 23.80318816175255 -0.20554552761380762)"><path d="M-1.1 -0.33 C3.93 -3.56, 20.83 -14.34, 29.11 -18.82 C37.39 -23.31, 47.32 -31.95, 48.59 -27.25 C49.86 -22.55, 40.28 0.13, 36.73 9.37 C33.19 18.61, 29.11 25.04, 27.32 28.2 M0.52 -1.54 C5.56 -5.2, 20.62 -16.67, 28.59 -20.78 C36.57 -24.88, 47.02 -31.34, 48.35 -26.16 C49.67 -20.99, 40.19 1.21, 36.53 10.26 C32.88 19.31, 27.97 24.77, 26.42 28.15" stroke="#1e1e1e" stroke-width="2" fill="none"></path></g></g><mask></mask><g stroke-linecap="round"><g transform="translate(188.21522960293572 245.92391352991274) rotate(0 15.658615172764595 11.699755897720923)"><path d="M-0.67 1.19 C4.58 4.79, 26.61 17.79, 31.98 21.05 M1.18 0.77 C6.32 4.63, 26.58 19.09, 31.58 22.63" stroke="#1e1e1e" stroke-width="2" fill="none"></path></g></g><mask></mask><g stroke-linecap="round" transform="translate(170.2853209073006 256.2532991318925) rotate(0 21.963680289316073 21.091451584893576)"><path d="M21.6 -0.37 C25.94 -0.82, 31.44 1.69, 35.07 4.5 C38.7 7.31, 42.3 12.04, 43.36 16.47 C44.42 20.91, 43.55 27.13, 41.43 31.1 C39.31 35.08, 34.97 38.68, 30.64 40.34 C26.31 41.99, 20.05 42.34, 15.43 41.04 C10.82 39.73, 5.54 36.35, 2.95 32.52 C0.36 28.69, -0.78 22.59, -0.12 18.08 C0.54 13.56, 3.24 8.44, 6.91 5.45 C10.57 2.46, 19.2 1.03, 21.87 0.13 C24.53 -0.77, 22.94 -0.28, 22.9 0.05 M19.45 0.69 C23.88 -0.12, 30.77 1.32, 34.73 3.75 C38.7 6.19, 42.06 11.13, 43.23 15.31 C44.4 19.49, 43.76 24.8, 41.74 28.84 C39.73 32.87, 35.3 37.39, 31.13 39.5 C26.97 41.61, 21.31 42.5, 16.76 41.49 C12.21 40.48, 6.5 36.95, 3.82 33.44 C1.15 29.94, 0.29 24.95, 0.72 20.46 C1.15 15.97, 3.35 9.82, 6.4 6.49 C9.44 3.17, 16.94 1.54, 18.99 0.49 C21.05 -0.55, 18.66 0.02, 18.72 0.22" stroke="#1e1e1e" stroke-width="2" fill="none"></path></g><g stroke-linecap="round"><g transform="translate(322.33485220352895 51.56119974575711) rotate(0 -105.20082743706088 160.29038882500984)"><path d="M0.54 0.98 C-34.57 54.25, -174.8 267.13, -209.93 320.13 M-0.64 0.45 C-35.98 53.35, -175.84 265.21, -210.94 318.5" stroke="#1e1e1e" stroke-width="0.5" fill="none"></path></g></g><mask></mask><g stroke-linecap="round"><g transform="translate(97.49428708625683 372.9259072478717) rotate(0 21.76029804717506 3.4681159382449067)" fill-rule="evenodd"><path d="M0.43 0.8 C0.18 -2.75, -6.19 -22.75, 0.8 -23.02 C7.79 -23.29, 35.04 -9.48, 42.37 -0.8 C49.7 7.88, 50.71 25.4, 44.77 29.06 C38.82 32.72, 14.36 26.13, 6.7 21.15 C-0.95 16.17, -0.29 2.7, -1.16 -0.82" stroke="none" stroke-width="0" fill="#1e1e1e" fill-rule="evenodd"></path><path d="M0.31 -0.63 C0.04 -4.11, -9.13 -20.48, -2.06 -20.54 C5.01 -20.6, 35.11 -8.97, 42.72 -1.01 C50.33 6.94, 49.56 23.55, 43.6 27.2 C37.64 30.85, 14.36 25.35, 6.98 20.88 C-0.39 16.4, 0.33 3.73, -0.66 0.33 M-0.99 1.65 C-0.84 -2.21, -6.97 -21.56, 0.24 -22.35 C7.45 -23.14, 34.96 -11.49, 42.26 -3.1 C49.57 5.3, 49.63 24, 44.08 28.03 C38.52 32.06, 16.18 25.85, 8.91 21.09 C1.63 16.33, 2.13 3.08, 0.4 -0.53" stroke="#1e1e1e" stroke-width="2" fill="none"></path></g></g><mask></mask><g stroke-linecap="round"><g transform="translate(337.5152014751501 39.36217468304221) rotate(0 -108.62892435002165 167.14833414634788)"><path d="M-1 -0.06 C-37.06 55.91, -181.11 279.4, -217.08 335.43 M0.68 -1.13 C-35.46 54.48, -181.61 277.55, -217.94 333.45" stroke="#1e1e1e" stroke-width="0.5" fill="none"></path></g></g><mask></mask><g stroke-linecap="round"><g transform="translate(338.6158333785443 42.32108851453302) rotate(0 -101.63875244142253 163.21019691816596)"><path d="M0.86 -0.68 C-33.06 53.62, -169.06 271.47, -203.21 325.99 M-0.15 1.58 C-34.24 55.99, -170.57 272.76, -204.13 327.1" stroke="#1e1e1e" stroke-width="0.5" fill="none"></path></g></g><mask></mask><g stroke-linecap="round"><g transform="translate(322.09840738429165 75.62314125551308) rotate(0 -90.47892171422797 150.1649194771511)"><path d="M0.26 0.33 C-29.78 50.37, -150.46 249.8, -180.75 299.85 M-1.06 -0.54 C-31.14 49.65, -151.04 250.47, -181.22 300.87" stroke="#1e1e1e" stroke-width="0.5" fill="none"></path></g></g><mask></mask><g stroke-linecap="round"><g transform="translate(319.6953125 94.2109375) rotate(0 -11.874173753708604 -8.106608809842726)"><path d="M-0.12 0.75 C-4.08 -1.89, -19.86 -12.71, -23.63 -15.45 M-1.64 0.1 C-5.23 -2.88, -17.66 -14.02, -21.29 -16.96" stroke="#1e1e1e" stroke-width="2" fill="none"></path></g></g><mask></mask></svg>